<svg xmlns="http://www.w3.org/2000/svg" version="1.1" xmlns:xlink="http://www.w3.org/1999/xlink" xmlns:svgjs="http://svgjs.com/svgjs" width="1000" height="1000"><rect width="1000" height="1000" rx="250" ry="250" fill="#f2f2f2"></rect><g transform="matrix(1,0,0,1,0,252)"><svg xmlns="http://www.w3.org/2000/svg" version="1.1" xmlns:xlink="http://www.w3.org/1999/xlink" xmlns:svgjs="http://svgjs.com/svgjs" width="100%" height="496"><svg version="1.1" id="Layer_1" xmlns="http://www.w3.org/2000/svg" xmlns:xlink="http://www.w3.org/1999/xlink" x="0px" y="0px" width="100%" viewBox="0 0 496 496" enable-background="new 0 0 496 496" xml:space="preserve">
<path fill="#000000" opacity="1.000000" stroke="none" d="
M282.468658,497.000000 
	C295.640472,494.334045 309.333435,491.891846 322.754425,488.231262 
	C331.048798,485.969055 338.792267,481.968933 347.307037,480.331909 
	C348.902191,480.025208 350.391785,478.918854 351.922119,480.525208 
	C352.293823,482.508331 350.560211,482.978149 349.419861,483.722107 
	C341.298187,489.020935 332.690369,493.234528 323.130219,495.291534 
	C322.194946,495.492798 321.335754,496.047485 320.220612,496.719055 
	C307.645782,497.000000 295.291534,497.000000 282.468658,497.000000 
z"></path>
<path fill="#000000" opacity="1.000000" stroke="none" d="
M201.468658,497.000000 
	C198.541626,495.226685 195.648270,495.426208 192.843842,495.148438 
	C190.758942,494.941925 188.494064,495.067139 186.831863,492.782959 
	C188.574203,490.287415 191.042587,489.608032 193.761871,490.112366 
	C210.323349,493.183777 227.256577,492.757233 243.854233,495.551941 
	C251.243149,496.796112 258.832764,495.318695 266.629333,496.822815 
	C245.312439,497.000000 223.624878,497.000000 201.468658,497.000000 
z"></path>
<path fill="#000000" opacity="1.000000" stroke="none" d="
M286.138611,36.894764 
	C294.170105,50.027382 304.732727,60.848446 313.020844,73.343391 
	C314.546509,75.643356 316.234680,76.064507 318.448822,74.632126 
	C321.242096,72.825111 324.003265,70.967247 326.751678,69.092331 
	C331.062897,66.151306 335.509827,63.671078 340.961365,63.598553 
	C350.369415,63.473400 355.243073,69.882645 352.774261,79.082886 
	C351.765381,82.842613 349.375916,85.846771 347.185394,89.620193 
	C354.513855,93.019417 361.647491,96.133919 367.803040,101.042137 
	C379.654755,110.492241 386.655396,122.482788 387.251099,137.746597 
	C388.246826,163.259567 381.990814,186.817596 368.096863,208.390366 
	C357.907318,224.211334 351.159912,241.223755 352.318542,260.551544 
	C353.014465,272.159943 356.124390,283.098022 361.009186,293.639130 
	C367.937378,308.589722 375.139099,323.459808 380.068970,339.226318 
	C391.918701,377.123779 382.942047,410.413116 357.109283,439.715515 
	C344.299194,454.246185 329.208008,465.629028 310.003967,470.064850 
	C294.711487,473.597168 279.069275,474.703430 263.358093,473.952209 
	C246.898392,473.165222 230.368179,472.961151 214.008057,471.204987 
	C192.704926,468.918182 171.266373,466.970306 150.378662,461.964020 
	C128.293884,456.670776 111.535156,434.751312 110.682152,411.705780 
	C110.250435,400.042084 111.872253,389.301727 119.963394,380.033020 
	C130.913284,367.489563 148.543671,366.572449 159.950577,378.601196 
	C163.839310,382.701935 167.862564,386.844543 170.866013,391.576324 
	C175.560150,398.971619 182.547714,401.112000 190.420135,401.569641 
	C197.656891,401.990356 204.387100,404.016571 211.268173,406.142578 
	C229.663345,411.825958 248.026291,412.880157 265.044739,401.706238 
	C273.942871,395.863922 277.857574,386.804565 279.707306,376.572876 
	C281.752441,365.259949 279.294250,354.389709 276.924469,343.520752 
	C272.611267,323.738464 263.675476,305.909302 253.130203,288.826080 
	C242.701447,271.931610 237.274384,253.407959 234.635086,233.892746 
	C230.840836,205.837463 235.885529,179.263596 247.717590,153.777466 
	C247.919617,153.342255 247.988419,152.845200 248.116028,152.389084 
	C247.817841,152.156525 247.566116,151.794296 247.344299,151.811752 
	C243.049759,152.149734 238.956787,151.999756 236.317230,147.793671 
	C233.551102,143.385849 235.471573,139.416382 237.634766,135.612808 
	C240.397705,130.754730 244.656326,127.155441 248.831055,123.607094 
	C251.806427,121.078133 251.823196,119.096321 249.384720,116.168922 
	C238.287155,102.846344 228.244537,88.742767 218.514008,74.392441 
	C215.316879,69.677399 215.110992,65.385605 217.102417,60.335339 
	C220.348434,52.103340 226.143280,46.023922 233.001648,40.853271 
	C241.953461,34.104343 252.109756,29.350029 261.896973,24.008127 
	C266.761932,21.352810 271.556610,22.332060 275.969727,25.519531 
	C280.093262,28.497843 283.134430,32.439491 286.138611,36.894764 
M250.446243,417.313599 
	C239.122070,419.295593 227.896057,418.613495 216.752396,416.016510 
	C207.518829,413.864685 198.390701,410.552094 189.046921,409.768707 
	C178.405380,408.876556 171.702881,403.221649 165.544296,395.709229 
	C162.378372,391.847351 159.263000,387.893188 155.698105,384.418518 
	C144.089188,373.103333 127.293678,376.891876 121.214005,391.918335 
	C118.451195,398.746826 117.520676,405.839600 118.396347,412.994720 
	C120.993980,434.220215 128.062698,445.041473 147.384171,452.022888 
	C160.943115,456.922089 175.288025,458.413147 189.528885,459.580475 
	C213.747375,461.565582 238.033371,462.712677 262.268829,464.510620 
	C276.158600,465.541077 289.907196,464.304138 303.582062,462.434662 
	C309.952454,461.563782 316.056122,459.025513 321.906311,456.057831 
	C351.313202,441.140228 370.427216,418.060028 377.149109,385.559021 
	C380.956635,367.149414 376.671570,349.513275 369.947754,332.369141 
	C361.100555,309.810974 348.453522,288.694275 344.498474,263.815277 
	C313.237274,272.332794 282.253662,269.848053 251.150375,264.316620 
	C250.671143,266.755035 251.824661,268.277588 252.504013,269.903076 
	C257.212585,281.169281 264.160858,291.225861 269.838593,301.968231 
	C280.952301,322.995636 288.544159,345.042847 288.189178,369.160095 
	C287.830963,393.496277 274.608093,410.483276 250.446243,417.313599 
M304.356415,102.825500 
	C289.081573,111.647072 275.025818,121.856567 264.986450,136.776855 
	C252.158859,155.840927 245.781281,177.229019 242.129349,199.612595 
	C240.999161,206.539841 241.065048,206.527008 247.696014,208.461258 
	C263.238434,212.994919 279.089417,215.873840 295.193146,217.444733 
	C313.977905,219.277191 332.763214,219.342880 351.563232,217.673981 
	C354.191101,217.440704 355.806976,216.117691 357.001801,213.898148 
	C360.396118,207.592880 364.156036,201.466019 367.233337,195.012070 
	C375.243774,178.211929 381.291748,160.922501 380.883575,141.851013 
	C380.300598,114.613419 353.030212,91.139214 326.011902,94.811989 
	C318.385956,95.848625 311.775726,99.281151 304.356415,102.825500 
M246.335480,252.199829 
	C246.841537,256.090149 249.259186,257.724915 252.962448,258.396240 
	C263.255066,260.262054 273.459351,262.405579 283.959412,263.207520 
	C303.061310,264.666443 321.785522,263.184204 340.279541,258.224121 
	C343.710175,257.304047 345.415680,255.366272 345.434235,251.932938 
	C345.463257,246.571381 346.575012,241.377075 347.757172,236.196976 
	C348.698303,232.073349 349.784149,227.982758 350.972687,223.206619 
	C332.074249,225.100281 313.830688,224.637100 295.626190,223.062073 
	C277.416290,221.486588 259.678955,217.154938 241.348907,212.588379 
	C240.902802,226.240433 241.759552,239.035645 246.335480,252.199829 
M225.315933,62.764130 
	C224.073730,65.436768 224.624619,67.816803 226.112930,70.297874 
	C230.063538,76.883644 234.772308,82.926201 239.198532,89.173828 
	C241.265076,92.090744 242.990402,91.387321 245.266495,89.414452 
	C253.080856,82.641174 261.561523,76.762451 270.103485,70.939919 
	C276.507385,66.574799 283.548096,63.075989 289.579559,57.556702 
	C283.890442,50.007030 279.977692,41.632534 273.629089,34.916275 
	C271.063202,32.201786 268.028564,30.343029 264.299683,31.446739 
	C247.332153,36.468945 233.642914,45.754375 225.315933,62.764130 
M254.647980,127.151154 
	C251.063599,130.168640 247.810806,133.467392 245.484406,137.598969 
	C244.505966,139.336609 245.102722,140.774429 246.043289,142.241653 
	C247.206268,144.055832 248.637802,143.155014 250.006241,142.650360 
	C252.707123,141.654312 254.885910,140.147186 256.619263,137.656418 
	C271.523682,116.239326 291.528076,101.399544 315.803284,92.114433 
	C323.271729,89.257790 330.873383,86.839729 338.610382,84.850449 
	C342.905334,83.746170 344.814301,80.639786 345.667847,76.682831 
	C346.094482,74.704948 346.165100,72.606750 344.117523,71.307487 
	C340.758911,69.176315 338.138702,71.559845 335.324677,72.827988 
	C322.523895,78.596718 310.981720,86.488510 299.316101,94.166473 
	C284.031891,104.226112 268.842194,114.419807 254.647980,127.151154 
M282.296112,86.776054 
	C285.690155,84.361763 289.137238,82.017967 292.463440,79.513573 
	C295.858124,76.957626 296.837494,73.257393 296.403107,69.277061 
	C295.923157,64.879097 293.414703,63.505150 289.483582,65.470772 
	C281.127869,69.648743 273.241119,74.647171 265.621063,80.026390 
	C260.597717,83.572517 255.505295,87.037811 251.036209,91.358536 
	C248.544998,93.767044 248.246750,95.903229 249.878311,98.812286 
	C252.155502,102.872520 257.771698,104.416359 261.890991,101.562386 
	C268.597473,96.915916 275.124207,92.010010 282.296112,86.776054 
M306.692993,83.284988 
	C307.833954,82.124817 307.939056,80.827614 306.657532,79.848030 
	C304.987061,78.571136 303.456970,79.849297 302.073700,80.624680 
	C289.877808,87.461143 278.240814,95.148880 267.557709,104.181374 
	C264.295593,106.939491 260.767059,109.621162 258.140411,113.534508 
	C259.447876,114.100899 260.078918,114.581169 260.293732,114.437805 
	C275.596680,104.225746 290.866455,93.964005 306.692993,83.284988 
z"></path>
<path fill="#000000" opacity="1.000000" stroke="none" d="
M403.922668,413.964111 
	C402.636200,419.348053 400.733185,424.054230 397.856842,428.974579 
	C395.155975,425.366394 395.094727,421.955902 396.379883,418.445160 
	C397.625275,415.043121 399.802124,412.026276 400.335114,408.302887 
	C400.549622,406.804382 401.588684,405.325256 403.423035,405.811127 
	C405.403503,406.335693 405.746185,407.902679 405.086670,409.772034 
	C404.647980,411.015503 404.343628,412.306366 403.922668,413.964111 
z"></path>
<path fill="#000000" opacity="1.000000" stroke="none" d="
M323.628540,357.853638 
	C327.037048,359.951721 325.029388,361.597229 323.342926,362.865631 
	C321.592682,364.182037 319.419678,364.978180 317.389862,363.343292 
	C315.976959,362.205292 316.700806,360.918427 317.786591,359.979553 
	C319.336487,358.639374 321.265137,358.119171 323.628540,357.853638 
z"></path>
<path fill="#000000" opacity="1.000000" stroke="none" d="
M321.108032,366.853516 
	C323.306763,366.931091 325.510712,365.567322 326.768036,367.964844 
	C327.376282,369.124695 326.797577,370.187408 325.867615,371.011047 
	C324.376984,372.331360 322.466370,372.790436 320.844971,371.913177 
	C318.289093,370.530365 316.672394,368.642456 321.108032,366.853516 
z"></path>
<path fill="#000000" opacity="1.000000" stroke="none" d="
M194.606384,430.615021 
	C191.683502,427.221893 195.183167,427.112671 196.617996,426.230957 
	C198.034988,425.360168 199.684341,423.633270 201.459473,425.313141 
	C202.651093,426.440857 201.752731,427.816925 200.763519,428.741333 
	C199.145935,430.252930 197.202301,431.038055 194.606384,430.615021 
z"></path>
<path fill="#000000" opacity="1.000000" stroke="none" d="
M204.423401,430.857178 
	C206.860535,433.232086 205.944717,434.964691 203.756073,436.233612 
	C202.289078,437.084167 200.340439,436.798218 200.172760,435.047516 
	C199.941269,432.630554 201.208084,430.684143 204.423401,430.857178 
z"></path>
<path fill="#000000" opacity="1.000000" stroke="none" d="
M312.230469,142.006210 
	C318.729340,143.822876 324.158142,143.729248 327.179413,136.809067 
	C327.710632,135.592209 328.887390,134.648270 330.426666,135.197128 
	C332.019409,135.765045 332.777130,137.114563 332.624054,138.723419 
	C332.267548,142.469666 330.483826,145.487595 326.890564,146.776077 
	C319.196320,149.535095 311.570892,149.321503 304.438660,144.988174 
	C302.173889,143.612167 300.424042,141.579865 301.204285,138.229736 
	C305.454681,137.769318 308.386292,140.641846 312.230469,142.006210 
z"></path>
<path fill="#000000" opacity="1.000000" stroke="none" d="
M357.249908,146.408783 
	C351.656006,148.808365 348.237396,148.048203 346.756805,144.379684 
	C345.278168,140.715988 346.965576,136.813934 350.702759,135.398712 
	C353.654541,134.280914 356.528473,134.716568 358.387268,137.224976 
	C360.608185,140.222046 360.524567,143.438004 357.249908,146.408783 
z"></path>
<path fill="#000000" opacity="1.000000" stroke="none" d="
M284.645935,138.947906 
	C287.488525,142.081558 287.120270,145.128418 284.704102,147.638855 
	C282.244751,150.194183 278.918243,149.902802 275.891602,148.651932 
	C273.773773,147.776627 272.378845,145.953033 272.983521,143.484634 
	C273.602936,140.956085 274.080750,138.068069 277.546082,137.794907 
	C279.850586,137.613281 282.194519,137.421936 284.645935,138.947906 
z"></path>
<path fill="#000000" opacity="1.000000" stroke="none" d="
M321.772095,243.258667 
	C322.575562,241.237000 323.761719,240.320587 325.287109,241.612762 
	C326.867279,242.951370 326.361847,244.954910 326.072021,246.724915 
	C325.854767,248.051529 324.772949,248.760452 323.555023,248.615189 
	C321.522827,248.372772 321.762024,246.596558 321.644470,245.155762 
	C321.604584,244.666824 321.674805,244.168884 321.772095,243.258667 
z"></path>
<path fill="#000000" opacity="1.000000" stroke="none" d="
M330.888428,239.240936 
	C335.106842,240.444016 335.323944,242.754761 333.078491,246.056900 
	C329.802826,244.560104 328.893311,242.466171 330.888428,239.240936 
z"></path>
</svg></svg></g></svg>